<svg height="512pt" viewBox="-32 0 512 512" width="512pt" xmlns="http://www.w3.org/2000/svg"><path d="m197.332031 469.332031h-138.664062c-32.363281 0-58.667969-26.300781-58.667969-58.664062v-352c0-32.363281 26.304688-58.667969 58.667969-58.667969h224c32.363281 0 58.664062 26.304688 58.664062 58.667969v160c0 8.832031-7.167969 16-16 16s-16-7.167969-16-16v-160c0-14.699219-11.964843-26.667969-26.664062-26.667969h-224c-14.699219 0-26.667969 11.96875-26.667969 26.667969v352c0 14.699219 11.96875 26.664062 26.667969 26.664062h138.664062c8.832031 0 16 7.167969 16 16s-7.167969 16-16 16zm0 0"/><path d="m80 277.332031c-8.832031 0-16-7.167969-16-16v-53.332031c0-8.832031 7.167969-16 16-16s16 7.167969 16 16v53.332031c0 8.832031-7.167969 16-16 16zm0 0"/><path d="m410.667969 512h-117.335938c-20.585937 0-37.332031-16.746094-37.332031-37.332031v-74.667969c0-20.585938 16.746094-37.332031 37.332031-37.332031h117.335938c20.585937 0 37.332031 16.746093 37.332031 37.332031v74.667969c0 20.585937-16.746094 37.332031-37.332031 37.332031zm-117.335938-117.332031c-2.941406 0-5.332031 2.386719-5.332031 5.332031v74.667969c0 2.941406 2.390625 5.332031 5.332031 5.332031h117.335938c2.941406 0 5.332031-2.390625 5.332031-5.332031v-74.667969c0-2.945312-2.390625-5.332031-5.332031-5.332031zm0 0"/><path d="m389.332031 394.667969h-74.664062c-8.832031 0-16-7.167969-16-16v-48c0-29.421875 23.914062-53.335938 53.332031-53.335938s53.332031 23.914063 53.332031 53.335938v48c0 8.832031-7.167969 16-16 16zm-58.664062-32h42.664062v-32c0-11.777344-9.554687-21.335938-21.332031-21.335938s-21.332031 9.558594-21.332031 21.335938zm0 0"/></svg>