<svg height="469.33333pt" viewBox="0 0 469.33333 469.33333" width="469.33333pt" xmlns="http://www.w3.org/2000/svg"><path d="m414.378906 469.332031h-359.425781c-30.3125 0-54.953125-24.660156-54.953125-54.953125v-359.425781c0-30.292969 24.640625-54.953125 54.953125-54.953125h359.425781c30.3125 0 54.953125 24.660156 54.953125 54.953125v359.425781c0 30.292969-24.640625 54.953125-54.953125 54.953125zm-359.425781-437.332031c-12.671875 0-22.953125 10.304688-22.953125 22.953125v359.425781c0 12.652344 10.28125 22.953125 22.953125 22.953125h359.425781c12.671875 0 22.953125-10.300781 22.953125-22.953125v-359.425781c0-12.648437-10.28125-22.953125-22.953125-22.953125zm0 0"/><path d="m234.667969 256c-35.285157 0-64-28.714844-64-64s28.714843-64 64-64c35.285156 0 64 28.714844 64 64s-28.714844 64-64 64zm0-96c-17.644531 0-32 14.355469-32 32s14.355469 32 32 32c17.640625 0 32-14.355469 32-32s-14.359375-32-32-32zm0 0"/><path d="m234.667969 341.332031c-8.832031 0-16-7.167969-16-16v-85.332031c0-8.832031 7.167969-16 16-16s16 7.167969 16 16v85.332031c0 8.832031-7.167969 16-16 16zm0 0"/></svg>